PathFileType	4	(X/Y/Z)	C:/Users/opensim2020/Desktop/walking_exp_matlab/subject02_walking05_straight_03.trc	
DataRate	CameraRate	NumFrames	NumMarkers	Units	OrigDataRate	OrigDataStartFrame	OrigNumFrames	
100.00	100.00	4	42	mm	100.00	2161	224	
Frame#	Time	LFHD			RFHD			LBHD			RBHD			C7			T10			CLAV			STRN			RBAK			LSHO			LUPA			LELB			LFRM			LWRA			LWRB			LFIN			RSHO			RUPA			RELB			RFRM			RWRA			RWRB			RFIN			LASI			RASI			LPSI			RPSI			LTHI			LKNE			LTIB			LANK			LHEE			LTOE			RTHI			RKNE			RTIB			RANK			RHEE			RTOE			*39			*40			*41			
		X1	Y1	Z1	X2	Y2	Z2	X3	Y3	Z3	X4	Y4	Z4	X5	Y5	Z5	X6	Y6	Z6	X7	Y7	Z7	X8	Y8	Z8	X9	Y9	Z9	X10	Y10	Z10	X11	Y11	Z11	X12	Y12	Z12	X13	Y13	Z13	X14	Y14	Z14	X15	Y15	Z15	X16	Y16	Z16	X17	Y17	Z17	X18	Y18	Z18	X19	Y19	Z19	X20	Y20	Z20	X21	Y21	Z21	X22	Y22	Z22	X23	Y23	Z23	X24	Y24	Z24	X25	Y25	Z25	X26	Y26	Z26	X27	Y27	Z27	X28	Y28	Z28	X29	Y29	Z29	X30	Y30	Z30	X31	Y31	Z31	X32	Y32	Z32	X33	Y33	Z33	X34	Y34	Z34	X35	Y35	Z35	X36	Y36	Z36	X37	Y37	Z37	X38	Y38	Z38	X39	Y39	Z39	X40	Y40	Z40	X41	Y41	Z41	X42	Y42	Z42	

85	0.840	-1072.17590	-319.86115	1729.99048	-931.26147	-340.93585	1709.45654	-1101.57288	-432.52136	1633.50427	-963.78308	-464.50970	1609.50452	-1025.77490	-488.53940	1502.67773	-1013.92957	-548.63428	1230.84851	-1037.05884	-349.87189	1431.59827	-1033.55762	-302.89258	1258.03723	-962.51770	-550.69647	1330.80042	-1206.16162	-414.12521	1478.93787	-1299.61304	-392.79630	1284.40381	-1321.17371	-352.52090	1148.07153	-1322.46570	-280.22159	1034.77563	-1272.27832	-178.08958	956.46887	-1311.07275	-212.47247	932.60693	-1307.06702	-161.00543	891.12585	-839.06909	-409.80518	1463.27283	-757.63666	-452.58755	1275.60059	-737.54193	-449.06619	1130.03442	-715.92035	-419.57465	1012.76788	-731.38641	-365.36374	888.14484	-702.90771	-414.89487	882.77722	-697.55304	-375.67233	821.95618	-1170.54932	-350.24200	964.44360	-916.54346	-314.43237	954.86682	-1059.38647	-543.91235	1011.20319	-946.27380	-533.67767	1008.58295	-1201.05811	-474.12772	659.88110	-1162.25952	-543.07233	467.98239	-1152.55420	-643.71930	300.46988	-1112.04468	-688.59174	79.76530	-1058.75952	-726.27008	57.26218	-1133.23669	-537.86407	30.25494	-828.24017	-321.94458	656.49792	-868.78577	-238.85278	468.06851	-853.94727	-198.47003	287.22055	-879.42468	-127.26369	104.46276	-936.97736	-131.26772	40.34222	-866.26050	35.07067	111.02987	-1001.31262	-445.03271	1775.18652						 
86	0.850	-1070.92029	-308.97412	1728.69348	-930.04730	-330.14926	1708.07300	-1100.91504	-421.84628	1632.46716	-962.61444	-453.80536	1608.40979	-1024.61560	-477.71921	1501.30750	-1012.71161	-537.66138	1229.46350	-1035.97766	-339.01736	1430.24963	-1032.72034	-291.98257	1256.71643	-961.32477	-539.95020	1329.26526	-1204.87366	-403.55908	1477.51477	-1298.33899	-382.60287	1283.05579	-1319.90283	-342.33545	1146.60498	-1321.27307	-269.68112	1033.43933	-1271.40442	-167.03847	955.62146	-1309.66882	-201.60490	931.63000	-1305.95532	-149.95721	890.44250	-837.92761	-399.05319	1461.86279	-756.83887	-443.07446	1274.03149	-736.58838	-439.00891	1128.36609	-714.94373	-410.61127	1011.05975	-730.37238	-356.89545	886.22363	-701.69330	-406.49606	881.23956	-696.32111	-367.64059	820.05322	-1170.32385	-340.21973	962.78802	-916.54095	-303.15002	953.35638	-1058.09558	-533.18256	1009.93146	-944.97565	-522.53546	1007.41095	-1200.62927	-466.10437	659.00128	-1162.14197	-536.00958	467.48779	-1152.71204	-639.14929	301.68039	-1112.54028	-687.75903	81.65588	-1059.25024	-725.63367	59.60902	-1133.38416	-537.84814	30.20143	-827.69568	-308.04495	655.97516	-868.68884	-225.74542	467.71823	-854.01361	-186.70164	286.31589	-880.35175	-117.79992	102.87499	-938.10785	-122.43835	38.96817	-867.12585	44.48059	107.68196	-1000.17871	-434.27567	1774.07617						 
87	0.860	-1069.52551	-298.09576	1727.43750	-928.66986	-319.37689	1706.97449	-1099.05420	-410.91440	1631.19031	-961.51276	-443.38947	1607.28064	-1023.27393	-466.81100	1500.00806	-1011.36200	-526.60608	1228.14294	-1034.80176	-328.07986	1429.00000	-1031.78809	-281.00839	1255.48865	-960.19745	-528.84869	1327.80823	-1203.66394	-392.90405	1476.34912	-1296.79126	-372.38190	1281.85291	-1318.51038	-332.34979	1145.21777	-1319.82861	-259.56961	1032.14001	-1270.30029	-156.50415	954.66461	-1308.26697	-191.23477	930.45642	-1304.73120	-139.56027	889.38684	-836.75507	-388.58276	1460.34851	-755.73254	-432.15143	1272.87793	-735.60345	-429.18356	1127.19836	-713.84766	-401.40308	1009.53473	-729.19531	-348.46609	884.41956	-700.55334	-398.11005	879.70667	-695.32660	-359.73221	818.32013	-1169.99463	-330.05511	961.16040	-916.27850	-291.38962	951.97540	-1056.64343	-522.33087	1008.77850	-943.58929	-511.24774	1006.33142	-1200.18958	-457.57895	658.14740	-1162.32312	-528.68756	467.36951	-1152.99512	-634.24225	303.08569	-1113.05103	-686.79279	83.85934	-1060.06335	-725.11774	62.77663	-1133.51526	-537.78033	30.13102	-826.69373	-293.64606	655.92780	-868.31433	-212.27299	467.15665	-854.12720	-175.81783	285.03439	-881.37524	-109.94717	100.76902	-939.04315	-115.60506	36.92271	-868.13605	52.04158	103.35487	-998.98657	-423.54797	1772.97278						 
88	0.870	-1068.08386	-287.16232	1726.28613	-927.07886	-308.42322	1705.59595	-1097.68604	-400.12518	1630.16943	-960.69360	-433.09521	1606.14893	-1021.85144	-455.87256	1498.77954	-1010.01544	-515.42609	1226.87048	-1033.53809	-317.07269	1427.88696	-1030.71533	-269.87573	1254.40942	-958.83185	-517.25134	1326.47717	-1202.34631	-382.16974	1475.17102	-1294.84155	-362.32968	1280.65857	-1316.92761	-322.50790	1143.98242	-1318.15527	-249.88434	1030.97974	-1269.04126	-146.45416	953.64825	-1306.82813	-181.40952	929.14783	-1303.49524	-129.72729	887.94348	-835.28967	-377.53186	1459.08447	-754.66797	-422.01596	1271.79980	-734.53497	-419.44748	1125.87402	-712.74518	-392.23682	1008.38770	-727.91901	-339.84952	882.81885	-699.39789	-389.40268	878.41956	-694.13129	-351.62183	816.71332	-1169.50159	-319.46439	959.64722	-915.85565	-279.18115	950.79736	-1055.16260	-511.03860	1007.48743	-942.09821	-499.72095	1005.21033	-1199.83557	-448.56302	657.38654	-1162.28430	-520.93109	467.23520	-1153.19189	-629.09009	304.76578	-1113.60193	-685.65491	86.45129	-1060.52161	-724.31384	66.17236	-1133.63818	-537.66968	30.04093	-825.56171	-278.64163	656.17963	-867.81750	-199.50024	466.51041	-854.19055	-165.89227	283.46378	-882.09802	-103.52419	98.44369	-940.05627	-110.49813	34.45753	-869.42206	58.09512	98.47147	-997.40094	-412.46863	1771.91663						 
